<?xml version="1.0" encoding="UTF-8" standalone="no"?>
<!-- Created with Inkscape (http://www.inkscape.org/) -->

<svg
   width="99.502907mm"
   height="173.27748mm"
   viewBox="0 0 99.502907 173.27748"
   version="1.1"
   id="svg1"
   xml:space="preserve"
   xmlns="http://www.w3.org/2000/svg"
   xmlns:svg="http://www.w3.org/2000/svg"><defs
     id="defs1" /><g
     id="layer2"
     transform="translate(424.83063,160.75009)"><path
       style="fill:#f6f9fc;fill-opacity:1;stroke:#000000;stroke-width:1.70962;stroke-linejoin:round;stroke-dasharray:none;stroke-opacity:1"
       d="m -378.02497,-159.83542 c -2.7575,-0.37606 -5.6588,1.16973 -4.4526,3.25582 1.4098,2.44916 1.5179,4.53747 -2.0948,6.06151 -7.4917,5.30937 -15.8811,11.00585 -17.2918,18.86793 -2.6193,9.82896 3.1759,19.46947 4.6953,29.04864 -1.3164,1.53009 -4.7289,1.98018 -4.2838,4.2308 -1.3809,1.6802 -6.7723,0.94988 -6.3916,3.3161 3.0905,2.51674 7.8213,4.09435 9.5566,7.45009 1.4828,2.45325 1.8788,5.27543 3.7649,7.60122 1.3828,13.33545 -2.121,26.76647 -6.3591,39.74793 -1.8002,4.122 -2.586,8.90472 -7.1619,11.98583 -4.3773,5.81249 -9.1017,11.49107 -13.9924,17.09609 -2.9687,3.07186 -0.8216,6.60906 -0.3097,9.88209 -1.6129,3.3875 -2.6558,7.51555 -0.039,10.77408 5.7718,1.89713 12.6028,1.41896 18.8421,1.88769 23.5335,0.26035 47.175,0.79875 70.6381,-0.78826 3.5349,0.10766 6.1138,-1.82449 6.2338,-4.26268 2.0292,-3.75187 -3.0529,-7.32764 -0.3933,-10.99805 1.6586,-4.7385 -2.6851,-8.79323 -6.1833,-12.4781 -4.1917,-4.43759 -6.9311,-9.54353 -11.7638,-13.64561 -7.8172,-15.17325 -11.1593,-31.48763 -10.985,-47.60273 0.5329,-3.28926 3.0257,-6.26547 4.1122,-9.48893 2.2305,-3.33979 8.0635,-5.16474 10.0644,-8.20677 -2.8591,-1.04754 -7.5102,-1.07848 -7.6567,-4.0194 -0.4558,-1.50742 -4.0147,-0.71324 -3.3018,-2.6029 0.2616,-8.05465 5.9182,-15.73747 4.4651,-23.94516 0.2989,-4.69084 -0.5926,-9.47664 -4.5684,-13.38535 -2.6201,-2.58332 -4.6968,-6.07389 -8.8354,-7.54584 -1.5142,0.88845 -2.3013,4.25518 -3.4028,7.08411 -2.4872,6.92718 -4.0468,14.24322 -5.8581,21.40343 -0.5275,3.22522 -9.2022,2.97681 -7.7836,-0.67961 0.7342,-4.19344 2.3062,-8.26459 3.2878,-12.46225 2.0891,-7.70164 3.5683,-11.86667 5.7722,-17.81226 1.5983,-2.21233 -3.3507,-2.90165 0.2748,-4.38885 1.8035,-0.79797 -1.4331,-3.81015 -0.3376,-2.86169 -0.7559,-1.09947 -1.3435,-2.58215 -3.631,-2.36977 -1.5387,-0.096 -3.0848,-0.15417 -4.6297,-0.14915 z"
       id="path21-2" /><path
       style="fill:#f6f9fc;fill-opacity:1;stroke:#000000;stroke-width:1.69234;stroke-linejoin:round;stroke-dasharray:none;stroke-opacity:1"
       d="m -421.44687,-1.30877 h 93.0782 z"
       id="path22-0" /></g></svg>
