<?xml version="1.0" encoding="UTF-8" standalone="no"?>
<!-- Created with Inkscape (http://www.inkscape.org/) -->

<svg
   width="99.502777mm"
   height="173.27748mm"
   viewBox="0 0 99.502777 173.27748"
   version="1.1"
   id="svg1"
   xml:space="preserve"
   inkscape:version="1.4 (e7c3feb100, 2024-10-09)"
   sodipodi:docname="gierkiv2.svg"
   xmlns:inkscape="http://www.inkscape.org/namespaces/inkscape"
   xmlns:sodipodi="http://sodipodi.sourceforge.net/DTD/sodipodi-0.dtd"
   xmlns="http://www.w3.org/2000/svg"
   xmlns:svg="http://www.w3.org/2000/svg"><sodipodi:namedview
     id="namedview1"
     pagecolor="#505050"
     bordercolor="#eeeeee"
     borderopacity="1"
     inkscape:showpageshadow="0"
     inkscape:pageopacity="0"
     inkscape:pagecheckerboard="0"
     inkscape:deskcolor="#505050"
     inkscape:document-units="mm"
     inkscape:zoom="0.25"
     inkscape:cx="-3146"
     inkscape:cy="-472"
     inkscape:window-width="1920"
     inkscape:window-height="1043"
     inkscape:window-x="0"
     inkscape:window-y="0"
     inkscape:window-maximized="1"
     inkscape:current-layer="layer2"><inkscape:page
       x="0"
       y="1.2201095e-12"
       width="99.502777"
       height="173.2775"
       id="page2"
       margin="0"
       bleed="0" /></sodipodi:namedview><defs
     id="defs1" /><g
     inkscape:groupmode="layer"
     id="layer2"
     inkscape:label="Warstwa 2"
     transform="translate(559.22155,280.83333)"><path
       style="fill:#c87137;fill-opacity:1;stroke:#000000;stroke-width:1.70962;stroke-linejoin:round;stroke-dasharray:none;stroke-opacity:1"
       d="m -512.41589,-279.91865 c -2.75755,-0.37606 -5.65881,1.16973 -4.45261,3.25582 1.40977,2.44916 1.51792,4.53747 -2.09477,6.06151 -7.49176,5.30937 -15.88115,11.00585 -17.29189,18.86793 -2.61926,9.82896 3.17593,19.46947 4.69531,29.04864 -1.31638,1.53009 -4.7289,1.98018 -4.2838,4.2308 -1.38088,1.6802 -6.77229,0.94988 -6.39155,3.3161 3.09048,2.51674 7.82128,4.09435 9.55663,7.45009 1.48276,2.45325 1.87875,5.27543 3.7649,7.60122 1.38276,13.33545 -2.12109,26.76647 -6.35914,39.74793 -1.80017,4.122 -2.58604,8.90472 -7.16187,11.98583 -4.37737,5.81249 -9.1017,11.49107 -13.99248,17.09609 -2.96865,3.07186 -0.82155,6.60906 -0.30967,9.88209 -1.61293,3.3875 -2.65574,7.51555 -0.0391,10.77408 5.77181,1.89713 12.60285,1.41896 18.84215,1.88769 23.53349,0.26035 47.17494,0.79875 70.63806,-0.78826 3.53486,0.10766 6.11381,-1.82449 6.23382,-4.26268 2.02916,-3.75187 -3.05294,-7.32764 -0.39328,-10.99805 1.65858,-4.7385 -2.68511,-8.79323 -6.18331,-12.4781 -4.19172,-4.43759 -6.93111,-9.54353 -11.76378,-13.64561 -7.81724,-15.17325 -11.15939,-31.48763 -10.98503,-47.60273 0.53292,-3.28926 3.02564,-6.26547 4.11223,-9.48893 2.23048,-3.33979 8.06345,-5.16474 10.06439,-8.20677 -2.85914,-1.04754 -7.5102,-1.07848 -7.65674,-4.0194 -0.45576,-1.50742 -4.01473,-0.71324 -3.3018,-2.6029 0.26163,-8.05465 5.9182,-15.73747 4.4651,-23.94516 0.29886,-4.69084 -0.59259,-9.47664 -4.56835,-13.38535 -2.62015,-2.58332 -4.69688,-6.07389 -8.83541,-7.54584 -1.51419,0.88845 -2.30129,4.25518 -3.4028,7.08411 -2.48719,6.92718 -4.0468,14.24322 -5.8581,21.40343 -0.52758,3.22522 -9.2022,2.97681 -7.78368,-0.67961 0.73426,-4.19344 2.30621,-8.26459 3.28784,-12.46225 2.08914,-7.70164 3.56835,-11.86667 5.77218,-17.81226 1.59831,-2.21233 -3.35065,-2.90165 0.27481,-4.38885 1.80354,-0.79797 -1.43306,-3.81015 -0.33757,-2.86169 -0.75595,-1.09947 -1.34353,-2.58215 -3.63099,-2.36977 -1.53869,-0.096 -3.08482,-0.15417 -4.62976,-0.14915 z"
       id="path21-2"
       sodipodi:nodetypes="ccccccccccccccccccccccccccccccccccccc" /><path
       style="fill:#1d1400;fill-opacity:1;stroke:#000000;stroke-width:1.69234;stroke-linejoin:round;stroke-dasharray:none;stroke-opacity:1"
       d="m -555.8378,-121.392 h 93.07818 z"
       id="path22-0" /></g></svg>
