<?xml version="1.0" encoding="UTF-8" standalone="no"?>
<!-- Created with Inkscape (http://www.inkscape.org/) -->

<svg
   width="89.143654mm"
   height="209.85086mm"
   viewBox="0 0 89.143654 209.85086"
   version="1.1"
   id="svg1"
   xml:space="preserve"
   inkscape:version="1.4 (e7c3feb100, 2024-10-09)"
   sodipodi:docname="gierkiv2.svg"
   xmlns:inkscape="http://www.inkscape.org/namespaces/inkscape"
   xmlns:sodipodi="http://sodipodi.sourceforge.net/DTD/sodipodi-0.dtd"
   xmlns="http://www.w3.org/2000/svg"
   xmlns:svg="http://www.w3.org/2000/svg"><sodipodi:namedview
     id="namedview1"
     pagecolor="#505050"
     bordercolor="#eeeeee"
     borderopacity="1"
     inkscape:showpageshadow="0"
     inkscape:pageopacity="0"
     inkscape:pagecheckerboard="0"
     inkscape:deskcolor="#505050"
     inkscape:document-units="mm"
     inkscape:zoom="0.25"
     inkscape:cx="-3146"
     inkscape:cy="-472"
     inkscape:window-width="1920"
     inkscape:window-height="1043"
     inkscape:window-x="0"
     inkscape:window-y="0"
     inkscape:window-maximized="1"
     inkscape:current-layer="layer2"><inkscape:page
       x="0"
       y="0"
       width="89.143654"
       height="209.85086"
       id="page2"
       margin="0"
       bleed="0" /></sodipodi:namedview><defs
     id="defs1" /><g
     inkscape:groupmode="layer"
     id="layer2"
     inkscape:label="Warstwa 2"
     transform="translate(1168.5253,97.059857)"><path
       style="fill:#c87137;fill-opacity:1;stroke:#000000;stroke-width:1.90467;stroke-linejoin:round;stroke-dasharray:none;stroke-opacity:1"
       d="m -1131.0365,-96.10726 c -3.6892,0.453371 -8.2989,2.729022 -8.3144,7.000755 -0.1996,2.133679 1.3385,3.915314 1.6233,5.891813 -1.9154,1.497727 -4.5694,1.89253 -6.6837,3.1325 -6.3811,3.146737 -10.8629,2.722723 -15.2936,8.945746 -0.224,1.405844 -0.7355,3.540789 1.1489,3.904137 5.22,2.437247 9.0524,7.347567 10.3329,12.962889 1.0869,4.130485 1.825,8.486636 1.25,12.731799 -0.5741,1.070209 -2.8723,2.020367 -1.4036,3.368155 1.871,1.228186 1.555,4.256628 -0.3969,5.255321 -1.7391,1.243801 -4.6775,2.571961 -3.9378,5.217429 0.7535,1.813312 -0.3576,2.756035 -1.8608,3.54647 -1.9141,1.31605 -3.8387,3.660864 -2.5428,6.082102 0.7947,3.052845 3.9024,4.510224 6.8218,4.627934 2.5315,0.494826 5.3308,-0.08608 7.7217,0.933167 1.3645,2.6566402 0.6889,5.8995424 0.9967,8.7881746 0.083,7.8013027 0.1957,15.6888024 -1.7854,23.2950084 -1.0635,5.328994 -2.2371,10.674229 -4.7329,15.548696 -1.0479,2.064523 -1.68,4.522247 -3.0097,6.329078 -1.7848,1.252663 -4.4332,1.764855 -5.5824,3.741919 -0.589,2.9893 1.9904,5.768324 0.9088,8.803926 -1.8583,5.847429 -7.3695,9.565833 -9.6733,15.214118 -2.1302,4.763304 -2.9201,10.483057 -0.4436,15.287607 0.8552,1.454929 0.7677,3.282934 -0.582,4.407542 -1.5245,2.854106 -0.876,6.334463 -1.0977,9.45483 0.2503,2.256954 -0.654,5.021434 1.5472,6.515204 14.4156,11.79125 88.5659,8.92904 85.5707,-11.121544 -0.094,-3.404855 0.5663,-7.648498 -2.5028,-10.037524 -1.6134,-1.094467 0.4592,-2.837702 0.6747,-4.315688 1.2102,-5.150681 0.1754,-10.918284 -2.7806,-15.320216 -2.932,-4.385761 -7.5836,-7.554509 -9.7183,-12.459689 -1.0042,-2.618202 0.4278,-5.235767 0.8235,-7.757978 -1.6041,-2.087904 -3.9706,-3.295397 -6.0978,-4.660821 -3.2229,-3.348193 -4.4068,-8.074048 -6.2123,-12.234144 -4.5934,-12.299842 -7.3155,-25.4665163 -6.4632,-38.627439 -0.1218,-1.304318 0.7912,-2.149552 2.0546,-2.097797 3.4775,-0.772777 7.9318,0.09307 10.5972,-2.801219 2.4302,-2.384007 1.7532,-6.668836 -1.0827,-8.420063 -1.2706,-0.851032 -2.9414,-1.743365 -2.4632,-3.586005 0.1402,-3.2786 -3.5099,-4.541913 -5.7133,-6.074231 0.025,-1.691495 -0.3528,-3.823743 1.3175,-4.92723 -0.8033,-1.733899 -3.1647,-3.072636 -2.687,-5.396397 -0.3334,-6.063074 0.5734,-12.309145 3.565,-17.678719 1.5359,-2.93064 5.0424,-3.827548 7.0631,-6.22843 0.2784,-2.768108 -2.3805,-4.757257 -4.1405,-6.522398 -5.647,-2.730996 -12.6004,-5.563005 -18.6393,-7.561124 -1.1362,-0.964331 0.6598,-2.298718 0.748,-3.424593 2.0874,-6.016024 -5.8083,-9.76613 -8.924,-9.733071 z"
       id="path27"
       sodipodi:nodetypes="cccccccccccccccccccccccccccccccccccccccccccccccc" /><path
       style="fill:#c87137;fill-opacity:1;stroke:#000000;stroke-width:1.3468;stroke-linejoin:round;stroke-dasharray:none;stroke-opacity:1"
       d="m -1166.6858,96.083448 h 86.6402 z"
       id="path28"
       sodipodi:nodetypes="ccc" /><path
       style="fill:#c87137;fill-opacity:1;stroke:#000000;stroke-width:1.3468;stroke-linejoin:round;stroke-dasharray:none;stroke-opacity:1"
       d="m -1144.1291,-13.004155 h 30.8231 z"
       id="path28-1"
       sodipodi:nodetypes="ccc" /><path
       style="fill:#c87137;fill-opacity:1;stroke:#000000;stroke-width:1.3468;stroke-linejoin:round;stroke-dasharray:none;stroke-opacity:1"
       d="m -1146.3424,-35.959198 h 36.5169 z"
       id="path28-1-2"
       sodipodi:nodetypes="ccc" /><path
       style="fill:#c87137;fill-opacity:1;stroke:#000000;stroke-width:1.3468;stroke-linejoin:round;stroke-dasharray:none;stroke-opacity:1"
       d="m -1137.9503,-83.293301 h 14.855 z"
       id="path28-1-2-0"
       sodipodi:nodetypes="ccc" /></g></svg>
