<?xml version="1.0" encoding="UTF-8" standalone="no"?>
<!-- Created with Inkscape (http://www.inkscape.org/) -->

<svg
   width="88.289406mm"
   height="205.02391mm"
   viewBox="0 0 88.289406 205.02391"
   version="1.1"
   id="svg1"
   xml:space="preserve"
   xmlns="http://www.w3.org/2000/svg"
   xmlns:svg="http://www.w3.org/2000/svg"><defs
     id="defs1" /><g
     id="layer2"
     transform="translate(408.25205,-35.189586)"><path
       style="fill:#f6fcfc;fill-opacity:1;stroke:#000000;stroke-width:1.9;stroke-dasharray:none;stroke-opacity:1"
       d="m -402.24147,238.94165 c -2.4216,-0.87041 -3.8627,-2.25476 -4.6397,-4.45631 -0.8833,-2.50383 -0.3676,-5.20452 1.3704,-7.17924 1.53,-1.73829 2.9963,-2.43043 5.494,-2.5935 1.8017,-0.11766 2.0664,-0.20633 2.1847,-0.7315 0.073,-0.32867 0.9034,-5.7412 1.8424,-12.02776 1.7137,-11.46782 7.6271,-50.86709 12.3964,-82.59289 1.4037,-9.33653 2.5521,-17.24237 2.5521,-17.56851 0,-0.57681 -0.12,-0.59297 -4.3424,-0.59297 -4.2047,0 -4.3901,-0.0233 -5.8511,-0.78821 -5.2597,-2.74783 -5.2084,-10.23474 0.09,-12.874271 1.43,-0.71254 1.608,-0.73101 7.0561,-0.73101 3.074,0 5.5891,-0.11266 5.5891,-0.25 0,-0.23067 -2.9961,-8.82016 -12.2665,-35.16913 -1.966,-5.58806 -4.005,-11.36205 -4.5307,-12.8311 -0.526,-1.46901 -0.9307,-2.69059 -0.899,-2.71459 0.033,-0.0233 0.043,-0.0533 7.9594,5.36059 4.3464,2.97233 10.3124,7.05144 13.2581,9.06469 2.9457,2.01325 5.4857,3.70644 5.6448,3.76264 0.16,0.0563 -1.3941,-1.59628 -3.4508,-3.67227 l -3.739,-3.77451 5.0797,-5.07375 c 2.7937,-2.79056 5.0797,-5.14885 5.0797,-5.24069 0,-0.0917 -0.3266,-0.34247 -0.729,-0.55704 -0.829,-0.44367 -1.948,-2.23572 -2.224,-3.56223 -0.5877,-2.8228 2.175,-6.0085 5.2107,-6.0085 3.0357,0 5.7984,3.1857 5.2108,6.0085 -0.2767,1.32651 -1.3951,3.11856 -2.2241,3.56223 -0.401,0.21467 -0.729,0.46524 -0.729,0.55704 0,0.092 2.2861,2.45013 5.0797,5.24069 l 5.0798,5.07375 -3.7391,3.77451 c -2.0567,2.07599 -3.6093,3.7285 -3.4507,3.67227 0.16,-0.0563 2.6987,-1.74939 5.6448,-3.76264 2.9456,-2.01325 8.9117,-6.09236 13.2581,-9.06469 4.3464,-2.97233 7.9281,-5.38459 7.9594,-5.36059 0.033,0.0233 -0.373,1.24558 -0.899,2.71459 -0.5257,1.46905 -2.5647,7.24304 -4.5307,12.8311 -9.2708,26.34897 -12.2665,34.9384 -12.2665,35.16913 0,0.13767 2.515,0.25 5.5891,0.25 5.448,0 5.626,0.02 7.0561,0.73101 5.2967,2.639531 5.348,10.126441 0.087,12.874271 -1.4607,0.76324 -1.646,0.78821 -5.8507,0.78821 -4.2241,0 -4.3424,0.0167 -4.3424,0.59297 0,0.326 1.1484,8.23198 2.552,17.56851 4.7694,31.7258 10.6828,71.12507 12.3962,82.59289 0.9393,6.28656 1.7687,11.69905 1.8427,12.02776 0.1166,0.5252 0.383,0.61384 2.1846,0.7315 2.4977,0.163 3.9641,0.85521 5.4941,2.5935 3.064,3.48117 2.1214,8.79835 -1.961,11.06031 l -1.4827,0.82164 -37.5361,0.0603 c -30.2109,0.0483 -37.735,-0.01 -38.557,-0.30667 z"
       id="path3-6" /><rect
       style="fill:#f6fcfc;fill-opacity:1;stroke:#000000;stroke-width:1.50683;stroke-linejoin:round;stroke-dasharray:none;stroke-opacity:1"
       id="rect3-0"
       width="70.736076"
       height="0.18026237"
       x="-399.58783"
       y="224.70264" /><rect
       style="fill:#f6fcfc;fill-opacity:1;stroke:#000000;stroke-width:1.41932;stroke-linejoin:round;stroke-dasharray:none;stroke-opacity:1"
       id="rect3-7-6"
       width="42.248585"
       height="0.26777253"
       x="-385.81903"
       y="110.99557" /></g></svg>
