<?xml version="1.0" encoding="UTF-8" standalone="no"?>
<!-- Created with Inkscape (http://www.inkscape.org/) -->

<svg
   width="95.654655mm"
   height="165.85593mm"
   viewBox="0 0 95.654655 165.85593"
   version="1.1"
   id="svg1"
   xml:space="preserve"
   xmlns="http://www.w3.org/2000/svg"
   xmlns:svg="http://www.w3.org/2000/svg"><defs
     id="defs1" /><g
     id="layer1"
     transform="translate(551.49648,152.79872)"><path
       style="fill:#f6f9fc;fill-opacity:1;stroke:#000000;stroke-width:1.37054;stroke-dasharray:none;stroke-opacity:1"
       d="m -509.12997,12.33099 c -8.8506,-0.2558 -15.242,-0.71757 -21.4693,-1.55112 -7.3194,-0.97976 -12.2013,-2.15497 -15.2303,-3.66634 -2.6515,-1.32303 -3.3671,-2.26041 -3.7095,-4.8592 -0.3136,-2.38114 -0.2894,-5.9329 0.049,-7.11055 0.2958,-1.03045 1.0382,-2.0527 1.9429,-2.6752 l 0.2087,-0.14361 -0.8435,-1.41188 c -1.9971,-3.34292 -2.7379,-5.54773 -2.6169,-7.78844 0.067,-1.24417 0.3374,-2.29751 0.8826,-3.44058 0.6188,-1.29732 1.4261,-2.38334 2.8026,-3.77011 1.3753,-1.38548 1.9158,-1.84067 5.0366,-4.24183 4.1642,-3.20381 5.5388,-4.61069 6.5368,-6.69015 0.672,-1.40014 0.7976,-2.00766 0.8017,-3.8771 0,-1.45026 -0.025,-1.74763 -0.2914,-3.07359 -0.4063,-2.02225 -0.3939,-1.91012 -0.2912,-2.63399 0.1984,-1.39922 0.845,-2.08981 3.8049,-4.06399 2.4086,-1.60648 3.6856,-2.60159 4.9764,-3.87779 5.0177,-4.96093 7.9133,-12.22655 8.3724,-21.0074 0.1655,-3.1638 -0.1128,-6.97049 -0.6708,-9.17599 l -0.2002,-0.79112 -1.6514,-0.29275 c -2.6628,-0.47201 -4.3243,-0.90629 -5.872,-1.53478 -2.8529,-1.15853 -4.0058,-2.27069 -4.8708,-4.6987 -0.2337,-0.65615 -0.2618,-0.85631 -0.2643,-1.88746 v -1.15348 l 0.3893,-0.78604 c 0.7327,-1.47903 2.1728,-2.6313 5.2256,-4.181 2.4419,-1.23954 5.6119,-2.60216 9.093,-3.90856 l 0.3033,-0.11382 -0.8079,-0.48977 c -6.0762,-3.6834 -10.5992,-9.98788 -12.1372,-16.91764 -0.5171,-2.32971 -0.5943,-3.09394 -0.5948,-5.88561 -5e-4,-3.30395 0.2477,-5.07204 1.114,-7.93629 0.8963,-2.96302 2.7357,-6.42448 4.7073,-8.8583 0.9072,-1.11985 2.8755,-3.09176 3.9467,-3.95378 4.773,-3.84124 10.8307,-5.99647 16.8542,-5.99647 1.2697,0 0.8511,0.13586 -0.5002,0.16236 -6.7847,0.13307 -13.287,2.88364 -18.1232,7.66635 -3.4312,3.3932 -5.8406,7.60722 -7.0436,12.31876 -0.9052,3.54556 -1.061,7.34245 -0.4494,10.95545 0.7396,4.36982 2.6517,8.64161 5.4028,12.0705 1.9601,2.44304 4.6184,4.78909 7.0631,6.23357 0.86,0.50814 1.0912,0.74102 0.8103,0.81618 -0.063,0.0169 -0.9817,0.35045 -2.0414,0.74127 -5.448,2.00923 -9.9004,4.266 -11.5348,5.84657 -1.4452,1.39759 -1.8567,2.90338 -1.3095,4.79172 0.447,1.54231 1.1281,2.65457 2.0848,3.4045 1.6974,1.33051 4.3938,2.29568 8.4657,3.0303 1.1936,0.21533 1.8724,0.37892 1.9421,0.468 0.1438,0.18403 0.3542,1.18152 0.5774,2.7376 0.544,3.79295 0.4437,8.22934 -0.281,12.43199 -0.5917,3.43147 -1.4429,6.10109 -2.8817,9.03729 -2.2357,4.56264 -5.1539,7.75182 -9.8948,10.81329 -2.8497,1.84026 -3.4494,2.43074 -3.7802,3.7219 -0.1712,0.668 -0.1468,0.93314 0.2618,2.85126 0.2572,1.20747 0.2837,1.48715 0.2869,3.02772 0,2.02989 -0.1313,2.6769 -0.8703,4.15269 -1.0237,2.04446 -2.468,3.51077 -6.5542,6.65403 -2.8894,2.22263 -4.0471,3.20469 -5.2297,4.43594 -2.0472,2.13157 -3.0498,3.97983 -3.344,6.16444 -0.1302,0.96778 -0.1218,1.45326 0.042,2.39056 0.3131,1.79491 1.0232,3.46713 2.5373,5.9749 0.4265,0.70647 0.8021,1.35474 0.8345,1.4406 0.043,0.11457 -0.058,0.24212 -0.3812,0.47932 -0.9144,0.67123 -1.5205,1.50525 -1.7936,2.46816 -0.2132,0.75155 -0.3104,2.78141 -0.2207,4.60994 0.2343,4.77787 0.7654,5.69296 4.2666,7.35149 5.5994,2.65245 20.6543,4.70669 36.2959,4.95257 3.1822,0.05 3.7392,0.0395 3.7416,-0.0705 0,-0.0919 0.03,-0.0829 0.096,0.0313 0.078,0.1332 0.2278,0.16056 0.8816,0.16056 0.6414,0 0.8116,-0.0299 0.9143,-0.16056 0.097,-0.12304 0.1204,-0.1284 0.1018,-0.0229 -0.014,0.0812 0.042,0.13449 0.1363,0.12998 0.088,-0.004 0.9141,-0.0174 1.835,-0.0294 1.0342,-0.0134 1.6043,-0.0519 1.4909,-0.10059 -0.1495,-0.0643 -0.1548,-0.08 -0.028,-0.0853 0.085,-0.004 0.1807,0.0348 0.2119,0.0853 0.034,0.0553 0.6646,0.0912 1.5881,0.0904 0.8703,-8e-4 1.4785,-0.0349 1.409,-0.079 -0.098,-0.0619 -0.091,-0.0894 0.03,-0.13622 0.2106,-0.0808 0.2497,-0.0738 0.1837,0.0331 -0.036,0.0588 0.2669,0.0921 0.8432,0.0928 1.0387,10e-4 6.7125,-0.26815 6.8924,-0.32719 0.066,-0.0217 0.093,-0.0842 0.059,-0.13872 -0.035,-0.0565 0.019,-0.0492 0.1245,0.0168 0.1503,0.0939 0.5314,0.0898 1.9993,-0.0217 1.1772,-0.0894 1.826,-0.17485 1.8489,-0.24353 0.025,-0.0753 0.08,-0.0783 0.1893,-0.0105 0.1097,0.0679 0.8272,0.0267 2.4936,-0.14318 9.7993,-0.99884 16.7833,-2.4556 20.3077,-4.23585 3.0722,-1.55185 3.5192,-2.37928 3.8241,-7.07889 0.174,-2.68128 -0.064,-4.69479 -0.6776,-5.74248 -0.251,-0.42838 -1.2352,-1.38977 -1.5865,-1.54985 -0.1182,-0.0539 -0.2149,-0.12799 -0.2149,-0.16475 0,-0.0368 0.3348,-0.61848 0.744,-1.2927 1.9213,-3.16569 2.8342,-5.62921 2.8342,-7.64828 0,-1.88509 -0.7878,-3.98805 -2.1724,-5.79874 -1.3231,-1.73026 -2.8769,-3.08903 -8.1101,-7.092 -1.3775,-1.05362 -3.4581,-3.09383 -4.1171,-4.03696 -1.0738,-1.53696 -1.5976,-2.95894 -1.7235,-4.6792 -0.09,-1.23256 0,-2.25969 0.3322,-3.88385 0.3842,-1.86473 0.4167,-2.2252 0.2562,-2.83976 -0.3227,-1.23606 -0.9599,-1.86314 -3.7729,-3.71328 -2.3599,-1.55211 -3.3749,-2.33984 -4.8117,-3.73407 -4.1972,-4.07307 -6.9609,-9.74586 -8.0702,-16.56498 -0.5826,-3.5814 -0.694,-7.20829 -0.3299,-10.73464 0.1721,-1.66628 0.5668,-3.9684 0.6995,-4.0799 0.016,-0.0134 0.6688,-0.13418 1.451,-0.26849 4.7656,-0.8184 7.7949,-1.94447 9.405,-3.49615 0.4704,-0.45328 0.6612,-0.73682 1.0808,-1.60561 0.5846,-1.21063 0.7998,-1.99133 0.7982,-2.89596 0,-2.25735 -1.495,-3.86193 -5.4745,-5.89087 -3.1082,-1.58467 -9.3987,-4.15368 -9.7968,-4.00093 -0.1428,0.0548 -0.1466,0.0401 -0.036,-0.13953 0.068,-0.11043 0.3921,-0.35038 0.7202,-0.53322 3.3933,-1.89157 6.8837,-5.30509 9.1518,-8.95023 3.34,-5.3679 4.6467,-11.89561 3.6408,-18.18821 -1.3057,-8.16813 -6.48,-15.36845 -13.806,-19.21182 -3.2087,-1.68332 -6.9568,-2.74731 -10.8223,-3.07217 -0.2271,-0.0191 0.047,-0.0208 0.6092,-0.004 2.9332,0.0886 7.4311,1.37524 10.309,2.94899 2.7274,1.49144 4.7084,2.98312 6.7165,5.05733 0.6411,0.66225 1.4631,1.58671 1.8267,2.05436 2.5539,3.28469 4.3588,7.20475 5.165,11.21808 0.4061,2.02154 0.4665,2.72277 0.4621,5.36715 0,2.857 -0.1435,4.06705 -0.7373,6.42975 -1.6995,6.76199 -6.0664,12.727 -11.9127,16.27208 l -0.9352,0.56713 0.7396,0.2596 c 1.1894,0.41747 4.8552,1.90864 6.184,2.51551 4.7624,2.17503 6.8759,3.65207 7.7501,5.41621 l 0.3844,0.77567 v 1.15378 c 0,1.28934 -0.1031,1.68101 -0.796,3.12639 -0.8763,1.82777 -2.9375,3.17194 -6.3374,4.13283 -1.3007,0.36759 -3.3448,0.80653 -4.7279,1.01527 -0.5094,0.0769 -0.788,0.16286 -0.8389,0.25891 -0.1166,0.2199 -0.4429,1.94097 -0.6013,3.17152 -0.5638,4.37866 -0.2729,9.5972 0.7774,13.94586 1.4692,6.08287 4.3301,11.14291 8.2311,14.55832 1.3319,1.16607 2.134,1.76127 4.229,3.13812 3.7043,2.43456 4.105,3.21332 3.4052,6.61706 -0.2724,1.3245 -0.3022,1.62493 -0.3054,3.07359 0,1.85862 0.1236,2.46933 0.8158,3.89934 1.0408,2.15051 2.5384,3.64964 7.2082,7.21558 3.201,2.44426 4.7141,3.84395 5.9822,5.53354 0.7382,0.98359 1.2684,1.97614 1.6196,3.03171 1.0056,3.02226 0.4065,5.80734 -2.1801,10.1348 l -0.8479,1.41864 0.2586,0.17998 c 0.4934,0.34338 1.3013,1.23068 1.5282,1.67844 0.1254,0.24755 0.2936,0.67545 0.3737,0.9509 0.4387,1.50932 0.3153,6.40152 -0.2143,8.49308 -0.2375,0.93832 -0.8434,1.83572 -1.6325,2.41819 -4.5713,3.37423 -18.4546,5.68968 -37.4136,6.2398 -2.7523,0.0799 -9.7227,0.0985 -12.0191,0.0321 z m 14.9557,-0.48785 c -0.032,-0.052 0.01,-0.0674 0.086,-0.036 0.159,0.061 0.1881,0.12675 0.056,0.12675 -0.048,0 -0.1115,-0.0408 -0.1423,-0.0907 z m 3.807,-0.12885 c 0,-0.0198 0.064,-0.0607 0.1424,-0.0907 0.082,-0.0313 0.1184,-0.016 0.086,0.0361 -0.054,0.0872 -0.2288,0.12895 -0.2288,0.0546 z"
       id="path1" /></g><g
     id="layer2"
     transform="translate(551.49648,152.79872)"><path
       style="fill:#f6f9fc;fill-opacity:1;stroke:#000000;stroke-width:0.783;stroke-linejoin:round;stroke-dasharray:none;stroke-opacity:1"
       d="m -503.57457,-151.4073 c -9.4465,-0.13146 -18.711,5.4555 -22.9891,13.88295 -3.8113,7.03599 -3.9777,15.84801 -0.5631,23.06977 2.1998,4.94083 6.2166,8.81321 10.6791,11.74537 0.2476,0.2366 0.7941,0.49882 0.8345,0.7657 -1.388,1.05577 -3.1987,1.31633 -4.7463,2.07971 -3.1361,1.37068 -6.4302,2.60887 -9.1089,4.79178 -1.2074,1.01746 -1.9685,2.67805 -1.418,4.24012 0.4515,1.94013 1.8267,3.59342 3.6756,4.35116 2.7233,1.3296 5.7917,1.6081 8.6482,2.49848 0.7055,1.16323 0.6617,2.608 0.8906,3.934 0.6417,6.79409 -0.1144,13.79316 -2.9373,20.05687 -1.8648,4.30466 -4.9733,8.00213 -8.8172,10.67792 -1.6416,1.32647 -3.7719,2.20239 -4.9482,4.02269 -0.6988,1.56139 0.2338,3.25257 0.2499,4.84623 0.3784,2.80121 -0.3157,5.69915 -2.197,7.86647 -2.6356,3.12442 -6.2391,5.2061 -9.2061,7.99217 -2.164,1.87757 -4.247,4.23453 -4.5227,7.21724 -0.3685,2.53203 0.9072,4.95292 2.0659,7.11737 0.4253,0.87791 1.1429,1.72289 1.2546,2.69526 -0.7284,1.11064 -2.1048,1.87586 -2.1763,3.35245 -0.1865,2.51262 -0.2399,5.10048 0.3393,7.56809 0.5026,2.13602 2.7795,2.94745 4.5682,3.74138 5.5063,1.97268 11.3667,2.68187 17.1436,3.38638 9.3584,1.0672 18.7878,1.15104 28.1949,1.08437 6.2702,-0.19482 12.546,-0.41984 18.7806,-1.15994 5.9115,-0.69937 11.9247,-1.47449 17.4811,-3.71829 1.6923,-0.67519 3.459,-1.83665 3.7536,-3.78687 0.442,-2.40969 0.4723,-4.91048 0.1728,-7.33835 -0.1506,-1.4215 -1.668,-2.08134 -2.2552,-3.22876 1.3197,-2.85337 3.4395,-5.56668 3.4805,-8.83784 -0.01,-3.53434 -2.4549,-6.45952 -5.0596,-8.58339 -3.3808,-2.96156 -7.4846,-5.34221 -9.8783,-9.23759 -1.6407,-2.78816 -1.1223,-6.16132 -0.5484,-9.19487 0.307,-1.36624 -0.5484,-2.62405 -1.658,-3.33564 -3.15,-2.2392 -6.5359,-4.30799 -8.8615,-7.45735 -4.3391,-5.45453 -6.3363,-12.52058 -6.5762,-19.40777 -0.03,-3.28788 -0.058,-6.70279 0.7769,-9.87299 0.1327,-0.87667 1.2286,-0.58798 1.8214,-0.86285 3.1058,-0.69142 6.5113,-1.16386 9.0307,-3.27215 1.4852,-1.47899 2.3952,-3.91228 1.516,-5.923 -1.4796,-2.30311 -4.1419,-3.43706 -6.5148,-4.59004 -2.6523,-1.15317 -5.2917,-2.44526 -8.0901,-3.18121 -0.5991,-0.23201 -0.6806,-0.65497 -0.1093,-0.9531 2.3413,-1.64365 4.7633,-3.23036 6.6718,-5.39625 6.1456,-6.52052 8.539,-16.33683 5.9323,-24.92978 -2.4646,-8.67585 -9.7547,-15.77941 -18.534,-17.90812 -2.0357,-0.57546 -4.126,-0.90943 -6.2465,-0.80778 z"
       id="path2" /><rect
       style="fill:#f6f9fc;fill-opacity:1;stroke:#000000;stroke-width:1.37054;stroke-linejoin:round;stroke-dasharray:none;stroke-opacity:1"
       id="rect14"
       width="32.28616"
       height="0.21381561"
       x="-519.58276"
       y="-84.035751" /><rect
       style="fill:#f6f9fc;fill-opacity:1;stroke:#000000;stroke-width:1.48953;stroke-linejoin:round;stroke-dasharray:none;stroke-opacity:1"
       id="rect14-6"
       width="85.990974"
       height="0.094824128"
       x="-546.82556"
       y="-7.1765566" /><rect
       style="fill:#f6f9fc;fill-opacity:1;stroke:#000000;stroke-width:1.45641;stroke-linejoin:round;stroke-dasharray:none;stroke-opacity:1"
       id="rect14-6-8"
       width="60.926479"
       height="0.12794766"
       x="-534.89807"
       y="-45.255337" /><rect
       style="fill:#f6f9fc;fill-opacity:1;stroke:#000000;stroke-width:1.33871;stroke-linejoin:round;stroke-dasharray:none;stroke-opacity:1"
       id="rect14-9"
       width="26.812239"
       height="0.245647"
       x="-516.92114"
       y="-102.0799" /></g></svg>
