<?xml version="1.0" encoding="UTF-8" standalone="no"?>
<!-- Created with Inkscape (http://www.inkscape.org/) -->

<svg
   width="95.649071mm"
   height="165.85593mm"
   viewBox="0 0 95.649071 165.85593"
   version="1.1"
   id="svg1"
   xml:space="preserve"
   inkscape:version="1.4 (e7c3feb100, 2024-10-09)"
   sodipodi:docname="gierkiv2.svg"
   xmlns:inkscape="http://www.inkscape.org/namespaces/inkscape"
   xmlns:sodipodi="http://sodipodi.sourceforge.net/DTD/sodipodi-0.dtd"
   xmlns="http://www.w3.org/2000/svg"
   xmlns:svg="http://www.w3.org/2000/svg"><sodipodi:namedview
     id="namedview1"
     pagecolor="#505050"
     bordercolor="#eeeeee"
     borderopacity="1"
     inkscape:showpageshadow="0"
     inkscape:pageopacity="0"
     inkscape:pagecheckerboard="0"
     inkscape:deskcolor="#505050"
     inkscape:document-units="mm"
     inkscape:zoom="0.25"
     inkscape:cx="-3146"
     inkscape:cy="-472"
     inkscape:window-width="1920"
     inkscape:window-height="1043"
     inkscape:window-x="0"
     inkscape:window-y="0"
     inkscape:window-maximized="1"
     inkscape:current-layer="layer2"><inkscape:page
       x="0"
       y="0"
       width="95.649071"
       height="165.85593"
       id="page2"
       margin="0"
       bleed="0" /></sodipodi:namedview><defs
     id="defs1" /><g
     inkscape:label="Warstwa 1"
     inkscape:groupmode="layer"
     id="layer1"
     transform="translate(678.4043,58.104141)"><path
       style="fill:#e9c6af;stroke:#000000;stroke-width:1.37054;stroke-dasharray:none;stroke-opacity:1"
       d="m -636.03737,107.02556 c -8.85065,-0.2558 -15.24204,-0.71757 -21.46928,-1.55112 -7.3194,-0.97976 -12.20134,-2.15497 -15.23034,-3.66634 -2.65151,-1.32303 -3.3671,-2.260417 -3.70945,-4.859208 -0.31368,-2.38114 -0.28941,-5.9329 0.0486,-7.11055 0.29573,-1.03045 1.03814,-2.0527 1.94286,-2.6752 l 0.20871,-0.14361 -0.84347,-1.41188 c -1.9971,-3.34292 -2.73793,-5.54773 -2.61695,-7.78844 0.0672,-1.24417 0.33738,-2.29751 0.88259,-3.44058 0.61879,-1.29732 1.42613,-2.38334 2.80266,-3.77011 1.37524,-1.38548 1.91572,-1.84067 5.0366,-4.24183 4.16412,-3.20381 5.53875,-4.61069 6.53679,-6.69015 0.672,-1.40014 0.79762,-2.00766 0.80166,-3.8771 0.003,-1.45026 -0.0251,-1.74763 -0.29142,-3.07359 -0.40622,-2.02225 -0.39383,-1.91012 -0.29117,-2.63399 0.19845,-1.39922 0.84501,-2.08981 3.80487,-4.06399 2.40859,-1.60648 3.68563,-2.60159 4.97642,-3.87779 5.01767,-4.96093 7.91336,-12.226543 8.37246,-21.007393 0.16542,-3.1638 -0.11289,-6.97049 -0.67086,-9.17599 l -0.20015,-0.79112 -1.65148,-0.29275 c -2.66277,-0.47201 -4.32425,-0.9062897 -5.87194,-1.5347797 -2.85289,-1.15853 -4.00578,-2.2706895 -4.87079,-4.6986995 -0.23377,-0.65615 -0.2618,-0.85631 -0.26433,-1.88746 l -0.003,-1.15348 0.38935,-0.78603996 c 0.73261,-1.47903 2.17276,-2.63130004 5.22559,-4.18100004 2.44182,-1.23954 5.61186,-2.60216 9.09296,-3.90856 l 0.30331,-0.11382 -0.80793,-0.48977 c -6.07613,-3.6833998 -10.59915,-9.9878808 -12.13719,-16.9176408 -0.51708,-2.32971 -0.59431,-3.09394 -0.59477,-5.88561 -5.4e-4,-3.30395 0.24764,-5.07204 1.11403,-7.93629 0.89626,-2.96302 2.73566,-6.42448 4.70725,-8.8583 0.90718,-1.11985 2.87554,-3.09176 3.94666,-3.95378 4.77304,-3.84124 10.83075,-5.99647 16.85429,-5.99647 1.26961,0 0.85106,0.13586 -0.5002,0.16236 -6.78473,0.13307 -13.28709,2.88364 -18.12327,7.66635 -3.43114,3.3932 -5.8406,7.60722 -7.04353,12.31876 -0.90524,3.54556 -1.06102,7.34245 -0.44949,10.95545 0.73963,4.36982 2.6517,8.64161 5.40281,12.0705 1.96014,2.443041 4.61839,4.7890908 7.06311,6.2335708 0.86001,0.50814 1.09121,0.74102 0.8103,0.81618 -0.0631,0.0169 -0.98171,0.35045 -2.04142,0.74127 -5.44797,2.00923 -9.90037,4.266 -11.53477,5.84657004 -1.44519,1.39759 -1.85669,2.90337996 -1.30947,4.79171996 0.44694,1.54231 1.12805,2.65457 2.08479,3.4045 1.69742,1.3305095 4.39383,2.2956795 8.46573,3.0302992 1.19355,0.21533 1.8724,0.37892 1.94204,0.468 0.14385,0.18403 0.35425,1.18152 0.57741,2.7376 0.54397,3.79295 0.4437,8.22934 -0.28097,12.43199 -0.5917,3.43147 -1.44295,6.101083 -2.88169,9.037283 -2.23569,4.56264 -5.15397,7.75182 -9.8948,10.81329 -2.84973,1.84026 -3.44946,2.43074 -3.78024,3.7219 -0.17114,0.668 -0.14679,0.93314 0.26178,2.85126 0.25719,1.20747 0.2837,1.48715 0.28693,3.02772 0.004,2.02989 -0.13134,2.6769 -0.87031,4.15269 -1.02371,2.04446 -2.46801,3.51077 -6.55418,6.65403 -2.88937,2.22263 -4.04715,3.20469 -5.22969,4.43594 -2.04725,2.13157 -3.04986,3.97983 -3.34397,6.16444 -0.13029,0.96778 -0.12184,1.45326 0.0416,2.39056 0.31301,1.79491 1.02311,3.46713 2.53722,5.9749 0.42654,0.70647 0.80209,1.35474 0.83456,1.4406 0.0433,0.11457 -0.0581,0.24212 -0.38127,0.47932 -0.9144,0.67123 -1.52047,1.50525 -1.7936,2.46816 -0.21317,0.75155 -0.31033,2.78141 -0.22065,4.60994 0.23432,4.777871 0.76542,5.692968 4.26662,7.351498 5.59938,2.65245 20.65432,4.70669 36.29589,4.95257 3.18218,0.05 3.73919,0.0395 3.74156,-0.0705 0.002,-0.0919 0.0298,-0.0829 0.0963,0.0313 0.0776,0.1332 0.22784,0.16056 0.88165,0.16056 0.64138,0 0.81161,-0.0299 0.91426,-0.16056 0.0966,-0.12304 0.12046,-0.1284 0.10186,-0.0229 -0.0143,0.0812 0.0416,0.13449 0.1363,0.12998 0.0883,-0.004 0.91405,-0.0174 1.83498,-0.0294 1.03421,-0.0134 1.60426,-0.0519 1.49092,-0.10059 -0.14959,-0.0643 -0.15483,-0.08 -0.0283,-0.0853 0.0853,-0.004 0.18066,0.0348 0.21185,0.0853 0.0342,0.0553 0.66456,0.0912 1.58808,0.0904 0.87032,-8e-4 1.47856,-0.0349 1.40901,-0.079 -0.0976,-0.0619 -0.0915,-0.0894 0.0304,-0.13622 0.21059,-0.0808 0.24973,-0.0738 0.18368,0.0331 -0.0363,0.0588 0.2669,0.0921 0.84327,0.0928 1.03869,10e-4 6.7125,-0.26815 6.89241,-0.32719 0.0663,-0.0217 0.0929,-0.0842 0.0592,-0.13872 -0.0349,-0.0565 0.0187,-0.0492 0.12444,0.0168 0.15033,0.0939 0.53142,0.0898 1.99935,-0.0217 1.17717,-0.0894 1.826,-0.17485 1.84889,-0.24353 0.0251,-0.0753 0.0797,-0.0783 0.18929,-0.0105 0.1097,0.0679 0.82721,0.0267 2.49362,-0.14318 9.79923,-0.99884 16.78327,-2.4556 20.30765,-4.23585 3.07223,-1.55185 3.51923,-2.379287 3.82414,-7.078898 0.17396,-2.68128 -0.0636,-4.69479 -0.67762,-5.74248 -0.25105,-0.42838 -1.23518,-1.38977 -1.58651,-1.54985 -0.11819,-0.0539 -0.21489,-0.12799 -0.21489,-0.16475 0,-0.0368 0.3348,-0.61848 0.74399,-1.2927 1.92132,-3.16569 2.83422,-5.62921 2.83422,-7.64828 0,-1.88509 -0.78784,-3.98805 -2.17242,-5.79874 -1.32307,-1.73026 -2.87691,-3.08903 -8.11013,-7.092 -1.37743,-1.05362 -3.45811,-3.09383 -4.11704,-4.03696 -1.07381,-1.53696 -1.59759,-2.95894 -1.72356,-4.6792 -0.0903,-1.23256 -0.002,-2.25969 0.33223,-3.88385 0.3842,-1.86473 0.41672,-2.2252 0.25624,-2.83976 -0.32278,-1.23606 -0.95993,-1.86314 -3.77294,-3.71328 -2.35986,-1.55211 -3.37492,-2.33984 -4.81167,-3.73407 -4.19727,-4.07307 -6.96097,-9.74586 -8.07021,-16.564973 -0.58258,-3.5814 -0.69403,-7.20829 -0.32988,-10.73464 0.17207,-1.66628 0.56673,-3.9684 0.69944,-4.0799 0.0159,-0.0134 0.66885,-0.13418 1.45101,-0.26849 4.76565,-0.8183997 7.79492,-1.9444697 9.40505,-3.4961492 0.47035,-0.45328 0.6612,-0.73682 1.08074,-1.60561 0.5846,-1.21063 0.7998,-1.99133 0.79825,-2.89596 -0.004,-2.25734996 -1.49504,-3.86193 -5.47456,-5.89087 -3.10816,-1.58467 -9.39868,-4.15368 -9.79675,-4.00093 -0.14283,0.0548 -0.1466,0.0401 -0.0358,-0.13953 0.0681,-0.11043 0.39213,-0.35038 0.72014,-0.53322 3.39333,-1.89157 6.88374,-5.3050908 9.15183,-8.9502308 3.34004,-5.3679 4.64672,-11.89561 3.64081,-18.18821 -1.30573,-8.16813 -6.48004,-15.36845 -13.80604,-19.21182 -3.20864,-1.68332 -6.95672,-2.74731 -10.82223,-3.07217 -0.22708,-0.0191 0.047,-0.0208 0.60913,-0.004 2.93326,0.0886 7.43113,1.37524 10.309,2.94899 2.7274,1.49144 4.70844,2.98312 6.7165,5.05733 0.64112,0.66225 1.46316,1.58671 1.82677,2.05436 2.55388,3.28469 4.35875,7.20475 5.165,11.21808 0.40611,2.02154 0.46648,2.72277 0.46208,5.36715 -0.005,2.857 -0.14353,4.06705 -0.73733,6.42975 -1.69944,6.76199 -6.06637,12.727001 -11.91263,16.2720808 l -0.93528,0.56713 0.73963,0.2596 c 1.18937,0.41747 4.85517,1.90864 6.18398,2.51551 4.76245,2.17503 6.87597,3.65207004 7.75013,5.41621004 l 0.38437,0.77566996 -0.003,1.15378 c -0.003,1.28934 -0.10306,1.68101 -0.79599,3.12639 -0.87626,1.82777 -2.93746,3.1719395 -6.33742,4.1328292 -1.30067,0.36759 -3.34473,0.80653 -4.7279,1.01527 -0.50938,0.0769 -0.78799,0.16286 -0.83889,0.25891 -0.11655,0.2199 -0.44285,1.94097 -0.6013,3.17152 -0.56381,4.37866 -0.2729,9.5972 0.77742,13.94586 1.46917,6.082863 4.33007,11.142903 8.23114,14.558313 1.33188,1.16607 2.13396,1.76127 4.22892,3.13812 3.70432,2.43456 4.10507,3.21332 3.4052,6.61706 -0.27235,1.3245 -0.3022,1.62493 -0.3054,3.07359 -0.004,1.85862 0.12367,2.46933 0.81581,3.89934 1.04086,2.15051 2.53847,3.64964 7.20828,7.21558 3.20091,2.44426 4.71407,3.84395 5.98213,5.53354 0.73819,0.98359 1.26845,1.97614 1.61966,3.03171 1.00556,3.02226 0.40645,5.80734 -2.18014,10.1348 l -0.84794,1.41864 0.25862,0.17998 c 0.49343,0.34338 1.30132,1.23068 1.52822,1.67844 0.12544,0.24755 0.29359,0.67545 0.37366,0.9509 0.43877,1.50932 0.31538,6.40152 -0.21421,8.493081 -0.23759,0.93832 -0.84343,1.835727 -1.63254,2.418197 -4.57126,3.37423 -18.45463,5.68968 -37.41362,6.2398 -2.75227,0.0799 -9.72265,0.0985 -12.01912,0.0321 z m 14.95574,-0.48785 c -0.0321,-0.052 0.005,-0.0674 0.0863,-0.036 0.15895,0.061 0.18803,0.12675 0.0561,0.12675 -0.0475,0 -0.11156,-0.0408 -0.14239,-0.0907 z m 3.80694,-0.12885 c 0,-0.0198 0.0641,-0.0607 0.14238,-0.0907 0.0816,-0.0313 0.11848,-0.016 0.0863,0.0361 -0.0539,0.0872 -0.22872,0.12895 -0.22872,0.0546 z"
       id="path1" /></g><g
     inkscape:groupmode="layer"
     id="layer2"
     inkscape:label="Warstwa 2"
     transform="translate(678.4043,58.104141)"><path
       style="fill:#c87137;fill-opacity:1;stroke:#000000;stroke-width:0.783;stroke-linejoin:round;stroke-dasharray:none;stroke-opacity:1"
       d="m -630.48201,-56.712731 c -9.44646,-0.13146 -18.71093,5.4555 -22.98911,13.88295 -3.81125,7.03599 -3.97768,15.84801 -0.56302,23.06977 2.1998,4.94083 6.21654,8.813211 10.67909,11.7453708 0.24759,0.2366 0.79408,0.49882 0.8345,0.7657 -1.38805,1.05577 -3.19872,1.31633 -4.74629,2.07971 -3.13612,1.37068 -6.43028,2.60887 -9.1089,4.79178004 -1.20748,1.01746 -1.9685,2.67804996 -1.418,4.24011996 0.45151,1.94013 1.82665,3.59342 3.67552,4.3511595 2.72336,1.3296 5.79176,1.6081 8.64828,2.4984797 0.7055,1.16323 0.66167,2.608 0.89052,3.934 0.64174,6.79409 -0.11432,13.79316 -2.93721,20.056863 -1.86484,4.30466 -4.97336,8.00213 -8.81723,10.67792 -1.64164,1.32647 -3.77192,2.20239 -4.94818,4.02269 -0.69882,1.56139 0.23373,3.25257 0.24987,4.84623 0.37843,2.80121 -0.31572,5.69915 -2.19704,7.86647 -2.63556,3.12442 -6.2391,5.2061 -9.20609,7.99217 -2.164,1.87757 -4.24694,4.23453 -4.52272,7.21724 -0.36849,2.53203 0.90727,4.95292 2.06598,7.11737 0.42528,0.87791 1.14287,1.72289 1.2546,2.69526 -0.7284,1.11064 -2.10483,1.87586 -2.17631,3.35245 -0.18651,2.51262 -0.23996,5.10048 0.33929,7.568091 0.5026,2.136027 2.77949,2.947457 4.5682,3.741387 5.5063,1.97268 11.36666,2.68187 17.1436,3.38638 9.35837,1.0672 18.78778,1.15104 28.19493,1.08437 6.27016,-0.19482 12.54592,-0.41984 18.78053,-1.15994 5.9115,-0.69937 11.92472,-1.47449 17.48117,-3.71829 1.69227,-0.67519 3.45894,-1.836657 3.75358,-3.786878 0.442,-2.40969 0.47231,-4.91048 0.17275,-7.33835 -0.15055,-1.4215 -1.66801,-2.08134 -2.25516,-3.22876 1.31968,-2.85337 3.43951,-5.56668 3.48046,-8.83784 -0.0101,-3.53434 -2.45491,-6.45952 -5.0596,-8.58339 -3.38078,-2.96156 -7.48453,-5.34221 -9.87826,-9.23759 -1.6407,-2.78816 -1.12228,-6.16132 -0.54837,-9.19487 0.30691,-1.36624 -0.54849,-2.62405 -1.65807,-3.33564 -3.14999,-2.2392 -6.5359,-4.30799 -8.86148,-7.45735 -4.33911,-5.45453 -6.33628,-12.520573 -6.57618,-19.407763 -0.0297,-3.28788 -0.0579,-6.70279 0.77691,-9.87299 0.13271,-0.87667 1.22859,-0.58798 1.82137,-0.86285 3.1058,-0.6914197 6.51126,-1.1638597 9.03068,-3.2721492 1.48527,-1.47899 2.39526,-3.91228 1.51604,-5.923 -1.47966,-2.30311 -4.14192,-3.43706 -6.51485,-4.59004 -2.65223,-1.15317 -5.29162,-2.44526 -8.09009,-3.18121 -0.59903,-0.23201 -0.68054,-0.65497 -0.10928,-0.9531 2.34134,-1.64365 4.7633,-3.2303598 6.67181,-5.3962508 6.1456,-6.52052 8.53901,-16.33683 5.9323,-24.92978 -2.4646,-8.67585 -9.75469,-15.77941 -18.53399,-17.90812 -2.03575,-0.57546 -4.12606,-0.90943 -6.24655,-0.80778 z"
       id="path2" /><rect
       style="fill:#000000;fill-opacity:1;stroke:#000000;stroke-width:1.37054;stroke-linejoin:round;stroke-dasharray:none;stroke-opacity:1"
       id="rect14"
       width="32.28616"
       height="0.21381561"
       x="-646.4903"
       y="10.658824" /><rect
       style="fill:#000000;fill-opacity:1;stroke:#000000;stroke-width:1.48953;stroke-linejoin:round;stroke-dasharray:none;stroke-opacity:1"
       id="rect14-6"
       width="85.990974"
       height="0.094824128"
       x="-673.73309"
       y="87.518013" /><rect
       style="fill:#000000;fill-opacity:1;stroke:#000000;stroke-width:1.45641;stroke-linejoin:round;stroke-dasharray:none;stroke-opacity:1"
       id="rect14-6-8"
       width="60.926479"
       height="0.12794766"
       x="-661.8056"
       y="49.439236" /><rect
       style="fill:#000000;fill-opacity:1;stroke:#000000;stroke-width:1.33871;stroke-linejoin:round;stroke-dasharray:none;stroke-opacity:1"
       id="rect14-9"
       width="26.812239"
       height="0.245647"
       x="-643.82867"
       y="-7.3853202" /></g></svg>
