<?xml version="1.0" encoding="UTF-8" standalone="no"?>
<!-- Created with Inkscape (http://www.inkscape.org/) -->

<svg
   width="81.548187mm"
   height="180.3136mm"
   viewBox="0 0 81.548187 180.3136"
   version="1.1"
   id="svg1"
   xml:space="preserve"
   inkscape:version="1.4 (e7c3feb100, 2024-10-09)"
   sodipodi:docname="gierkiv2.svg"
   xmlns:inkscape="http://www.inkscape.org/namespaces/inkscape"
   xmlns:sodipodi="http://sodipodi.sourceforge.net/DTD/sodipodi-0.dtd"
   xmlns="http://www.w3.org/2000/svg"
   xmlns:svg="http://www.w3.org/2000/svg"><sodipodi:namedview
     id="namedview1"
     pagecolor="#505050"
     bordercolor="#eeeeee"
     borderopacity="1"
     inkscape:showpageshadow="0"
     inkscape:pageopacity="0"
     inkscape:pagecheckerboard="0"
     inkscape:deskcolor="#505050"
     inkscape:document-units="mm"
     inkscape:zoom="0.25"
     inkscape:cx="-3146"
     inkscape:cy="-472"
     inkscape:window-width="1920"
     inkscape:window-height="1043"
     inkscape:window-x="0"
     inkscape:window-y="0"
     inkscape:window-maximized="1"
     inkscape:current-layer="layer2"><inkscape:page
       x="0"
       y="0"
       width="81.548187"
       height="180.3136"
       id="page2"
       margin="0"
       bleed="0" /></sodipodi:namedview><defs
     id="defs1" /><g
     inkscape:groupmode="layer"
     id="layer2"
     inkscape:label="Warstwa 2"
     transform="translate(914.31263,75.855906)"><path
       style="fill:#c87137;fill-opacity:1;stroke:#000000;stroke-width:1.39035;stroke-linejoin:round;stroke-dasharray:none;stroke-opacity:1"
       d="m -864.23954,-75.131942 c -2.56814,-0.36181 -3.66718,2.68022 -6.04575,2.88365 -1.66231,1.87214 -0.91622,4.81279 -1.33443,7.11 0.1254,1.47983 -0.56424,3.38961 -2.3942,3.01016 -3.38377,0.2799 -7.78331,-1.58265 -10.33794,1.5687 -4.02698,4.60143 -7.74537,9.68048 -12.44101,13.57487 -2.81337,1.71692 -5.25557,4.06551 -8.17688,5.70522 -2.11717,1.71219 -5.27817,2.39126 -6.73317,4.81009 -0.16589,5.46087 -0.31956,10.99475 0.31284,16.42633 0.3773,1.86379 2.10258,2.754481 3.66802,3.26237 2.49557,0.948292 21.63375,2.8406 25.82352,4.99272 2.22084,0.98462 0.8116,3.4581001 -0.24351,4.7702601 -10.03252,14.3248001 -20.8567,28.1531999 -29.78689,43.2140219 -1.01351,2.19279 1.30198,4.25603 2.40244,5.97465 1.96685,2.78198 4.93418,4.57738 7.2275,7.01195 -0.43988,1.31141 -1.68691,2.57883 -0.72822,4.02576 0.47473,1.91141 1.45089,4.42918 -0.58558,5.80369 -3.21105,3.58591 -6.84187,7.0645 -8.87371,11.48858 -1.35263,3.14516 0.55333,6.32666 1.2783,9.30136 -1.03227,1.50297 -2.43451,2.91798 -2.27744,4.93287 -0.47705,4.261115 0.29588,9.153085 3.32747,12.360175 4.97453,3.553865 11.43575,3.785795 17.26889,4.790905 16.48233,2.39337 33.19722,2.66209 49.6777,-0.15919 2.6071,-0.95398 6.36673,-1.35774 7.14936,-4.558385 1.4803,-4.27198 2.30575,-9.08481 1.19224,-13.529965 -0.27187,-1.38314 -2.62865,-1.93347 -1.35465,-3.49961 1.31478,-3.13234 2.09883,-6.97655 -0.16225,-9.89383 -2.26605,-3.9261 -6.23857,-6.54546 -8.57931,-10.36965 0.0197,-3.21187 -1.60504,-6.5154 -0.17812,-9.62845 2.16411,-2.44601 6.09381,-3.69682 6.50147,-7.40846 3.07818,-13.225162 4.08411,-26.846532 4.88247,-40.3723018 0.24725,-10.8990701 0.7418,-21.8859202 -0.57001,-32.7329002 -1.14448,-5.71346 -4.645,-17.60624 -5.28908,-18.38721 -1.75455,-3.39406 -3.80259,-7.01171 -6.994,-9.21456 -0.76979,-0.74181 -0.78114,-2.27067 -1.69593,-3.06629 -3.75759,-5.128 -8.11701,-9.84929 -12.71118,-14.20428 -1.07299,0.003 -2.14602,-0.006 -3.21896,0.006 z"
       id="path24"
       sodipodi:nodetypes="cccccccccccccccccccccccccccccccccccccc" /><path
       style="fill:#000000;fill-opacity:1;stroke:#000000;stroke-width:0.461613;stroke-linejoin:round;stroke-dasharray:none;stroke-opacity:1"
       id="path25"
       sodipodi:type="arc"
       sodipodi:cx="-879.39166"
       sodipodi:cy="-43.433601"
       sodipodi:rx="4.9928341"
       sodipodi:ry="5.3076978"
       sodipodi:start="0"
       sodipodi:end="6.283001"
       sodipodi:arc-type="arc"
       d="m -874.39883,-43.433601 a 4.9928341,5.3076978 0 0 1 -4.9926,5.307697 4.9928341,5.3076978 0 0 1 -4.99307,-5.307208 4.9928341,5.3076978 0 0 1 4.99215,-5.308187 4.9928341,5.3076978 0 0 1 4.99352,5.306719"
       sodipodi:open="true" /><path
       style="fill:#000000;fill-opacity:1;stroke:#000000;stroke-width:0.461613;stroke-linejoin:round;stroke-dasharray:none;stroke-opacity:1"
       id="path25-6"
       sodipodi:type="arc"
       sodipodi:cx="-862.86737"
       sodipodi:cy="-43.159073"
       sodipodi:rx="4.9928341"
       sodipodi:ry="5.3076978"
       sodipodi:start="0"
       sodipodi:end="6.283001"
       sodipodi:arc-type="arc"
       d="m -857.87454,-43.159073 a 4.9928341,5.3076978 0 0 1 -4.9926,5.307698 4.9928341,5.3076978 0 0 1 -4.99306,-5.307209 4.9928341,5.3076978 0 0 1 4.99214,-5.308187 4.9928341,5.3076978 0 0 1 4.99352,5.30672"
       sodipodi:open="true" /><path
       style="fill:#c87137;fill-opacity:1;stroke:#000000;stroke-width:1.48083;stroke-linejoin:round;stroke-dasharray:none;stroke-opacity:1"
       d="m -911.42378,79.972878 74.85693,0.490456 z"
       id="path19-9-7" /><path
       style="fill:#c87137;fill-opacity:1;stroke:#000000;stroke-width:1.29823;stroke-linejoin:round;stroke-dasharray:none;stroke-opacity:1"
       d="m -902.32066,57.849859 57.07184,0.49443 z"
       id="path19-9-7-8" /><path
       style="fill:#c87137;fill-opacity:1;stroke:#000000;stroke-width:1.30847;stroke-linejoin:round;stroke-dasharray:none;stroke-opacity:1"
       d="m -902.36552,48.873913 58.00811,0.494152 z"
       id="path19-9-7-4" /></g></svg>
