<?xml version="1.0" encoding="UTF-8" standalone="no"?>
<!-- Created with Inkscape (http://www.inkscape.org/) -->

<svg
   width="114.15437mm"
   height="175.63908mm"
   viewBox="0 0 114.15437 175.63908"
   version="1.1"
   id="svg1"
   xml:space="preserve"
   xmlns="http://www.w3.org/2000/svg"
   xmlns:svg="http://www.w3.org/2000/svg"><defs
     id="defs1" /><g
     id="layer2"
     transform="translate(275.94363,-64.127833)"><path
       style="fill:#f6fcfc;fill-opacity:1;stroke:#000000;stroke-width:1.9;stroke-dasharray:none;stroke-opacity:1"
       d="m -270.06605,237.67795 c -5.80206,-2.63433 -6.62078,-9.27683 -1.70903,-13.86625 0,0 1.29454,-1.55278 1.60873,-1.50317 h 51.61189 51.61186 c 0.71107,-0.0331 1.60873,1.50317 1.60873,1.50317 3.36827,4.68296 4.09304,11.23192 -1.70903,13.86625 l -2.5085,1.13895 h -49.00306 -49.00309 z m 6.86481,-19.12733 c -2.07193,-2.31724 -1.33678,-5.73551 1.44181,-6.70414 2.65709,-0.92627 83.75282,-0.92627 86.40992,0 2.77858,0.96863 3.51373,4.3869 1.4418,6.70414 l -0.94083,1.05221 h -43.70592 -43.70595 z m 6.7671,-9.83032 c 0,-0.36355 1.0516,-3.27219 2.33688,-6.46359 7.0459,-17.49509 10.28821,-40.97018 10.28932,-74.49704 l 3.6e-4,-10.37181 h 25.25312 25.25311 l 0.007,10.97306 c 0.0182,34.00511 3.25449,56.61329 10.75204,75.10794 1.02779,2.53531 1.8687,4.90279 1.8687,5.26105 0,0.46084 -11.0831,0.65144 -37.87965,0.65144 -27.13565,0 -37.87967,-0.18748 -37.87967,-0.66105 z m 3.60759,-94.94003 c -1.57254,-1.57252 -1.54252,-4.31606 0.0632,-5.76914 l 1.26566,-1.14541 h 33.05955 33.05955 l 1.14941,1.41945 c 1.48344,1.83199 1.46269,3.97928 -0.0532,5.4951 l -1.20251,1.20254 h -33.06955 -33.06957 z m -1.05771,-10.21826 c -1.0778,-0.65714 -2.49727,-2.07661 -3.1544,-3.15438 l -1.19479,-1.95962 -0.002,-16.68508 -0.002,-16.6851 h 7.21518 7.21517 v 6.31327 6.31329 h 6.31327 6.31329 V 71.3911 65.07783 h 12.62656 12.62655 v 6.31327 6.31329 h 6.31327 6.31329 V 71.3911 65.07783 h 7.21516 7.21517 l -0.002,16.6851 -0.002,16.68508 -1.19478,1.95962 c -0.65714,1.07777 -2.07661,2.49724 -3.15441,3.15438 l -1.9596,1.19479 h -33.37017 -33.3702 z"
       id="path41" /></g></svg>
