<?xml version="1.0" encoding="UTF-8" standalone="no"?>
<!-- Created with Inkscape (http://www.inkscape.org/) -->

<svg
   width="81.548248mm"
   height="180.3136mm"
   viewBox="0 0 81.548248 180.3136"
   version="1.1"
   id="svg1"
   xml:space="preserve"
   inkscape:version="1.4 (e7c3feb100, 2024-10-09)"
   sodipodi:docname="gierkiv2.svg"
   xmlns:inkscape="http://www.inkscape.org/namespaces/inkscape"
   xmlns:sodipodi="http://sodipodi.sourceforge.net/DTD/sodipodi-0.dtd"
   xmlns="http://www.w3.org/2000/svg"
   xmlns:svg="http://www.w3.org/2000/svg"><sodipodi:namedview
     id="namedview1"
     pagecolor="#505050"
     bordercolor="#eeeeee"
     borderopacity="1"
     inkscape:showpageshadow="0"
     inkscape:pageopacity="0"
     inkscape:pagecheckerboard="0"
     inkscape:deskcolor="#505050"
     inkscape:document-units="mm"
     inkscape:zoom="0.25"
     inkscape:cx="-3146"
     inkscape:cy="-472"
     inkscape:window-width="1920"
     inkscape:window-height="1043"
     inkscape:window-x="0"
     inkscape:window-y="0"
     inkscape:window-maximized="1"
     inkscape:current-layer="layer2"><inkscape:page
       x="0"
       y="0"
       width="81.548248"
       height="180.3136"
       id="page2"
       margin="0"
       bleed="0" /></sodipodi:namedview><defs
     id="defs1" /><g
     inkscape:groupmode="layer"
     id="layer2"
     inkscape:label="Warstwa 2"
     transform="translate(803.8041,77.522922)"><path
       style="fill:#1d1400;fill-opacity:1;stroke:#ffffff;stroke-width:1.39035;stroke-linejoin:round;stroke-dasharray:none;stroke-opacity:1"
       d="m -753.73102,-76.79896 c -2.56814,-0.36181 -3.66718,2.68022 -6.04575,2.88365 -1.66231,1.87214 -0.91622,4.81279 -1.33443,7.11 0.1254,1.47983 -0.56424,3.38961 -2.3942,3.01016 -3.38377,0.2799 -7.78331,-1.58265 -10.33794,1.5687 -4.02698,4.60143 -7.74537,9.68048 -12.44103,13.57487 -2.8133,1.71692 -5.2555,4.06551 -8.1769,5.70522 -2.1171,1.71219 -5.2781,2.39126 -6.7331,4.81009 -0.1659,5.46087 -0.3196,10.99475 0.3128,16.42633 0.3773,1.86379 2.1026,2.75448 3.668,3.26237 2.4956,0.94829 21.63378,2.8406 25.82355,4.99272 2.22084,0.98462 0.8116,3.4580995 -0.24351,4.7702595 -10.03252,14.3248 -20.85674,28.1532005 -29.78684,43.2140225 -1.0136,2.19279 1.3019,4.25603 2.4024,5.97465 1.9668,2.78198 4.9342,4.57738 7.2275,7.01195 -0.4399,1.31141 -1.6869,2.57883 -0.7282,4.02576 0.4747,1.91141 1.4509,4.42918 -0.5856,5.80369 -3.2111,3.58591 -6.8419,7.0645 -8.8737,11.48858 -1.3526,3.14516 0.5533,6.32666 1.2783,9.30136 -1.0323,1.50297 -2.4345,2.91798 -2.2775,4.93287 -0.477,4.261115 0.2959,9.153085 3.3275,12.360175 4.9745,3.553865 11.4358,3.785795 17.2689,4.790903 16.48233,2.39337 33.19722,2.66209 49.6777,-0.15919 2.6071,-0.953978 6.36673,-1.357738 7.14936,-4.558383 1.4803,-4.27198 2.30575,-9.08481 1.19224,-13.529965 -0.27187,-1.38314 -2.62865,-1.93347 -1.35465,-3.49961 1.31478,-3.13234 2.09883,-6.97655 -0.16225,-9.89383 -2.26605,-3.9261 -6.23857,-6.54546 -8.57931,-10.36965 0.0197,-3.21187 -1.60504,-6.5154 -0.17812,-9.62845 2.16411,-2.44601 6.09381,-3.69682 6.50147,-7.40846 3.07818,-13.225162 4.08411,-26.846532 4.88247,-40.37230245 0.24725,-10.89906955 0.7418,-21.88591955 -0.57001,-32.73289955 -1.14448,-5.71346 -4.645,-17.60624 -5.28908,-18.38721 -1.75455,-3.39406 -3.80259,-7.01171 -6.994,-9.21456 -0.76979,-0.74181 -0.78114,-2.27067 -1.69593,-3.06629 -3.75759,-5.128 -8.11701,-9.84929 -12.71118,-14.20428 -1.07299,0.003 -2.14602,-0.006 -3.21896,0.006 z"
       id="path24-6"
       sodipodi:nodetypes="cccccccccccccccccccccccccccccccccccccc" /><path
       style="fill:#ffffff;fill-opacity:1;stroke:#000000;stroke-width:0.461613;stroke-linejoin:round;stroke-dasharray:none;stroke-opacity:1"
       id="path25-8"
       sodipodi:type="arc"
       sodipodi:cx="-768.88318"
       sodipodi:cy="-45.100624"
       sodipodi:rx="4.9928341"
       sodipodi:ry="5.3076978"
       sodipodi:start="0"
       sodipodi:end="6.283001"
       sodipodi:arc-type="arc"
       d="m -763.89034,-45.100624 a 4.9928341,5.3076978 0 0 1 -4.99261,5.307698 4.9928341,5.3076978 0 0 1 -4.99306,-5.307209 4.9928341,5.3076978 0 0 1 4.99214,-5.308187 4.9928341,5.3076978 0 0 1 4.99353,5.30672"
       sodipodi:open="true" /><path
       style="fill:#ffffff;fill-opacity:1;stroke:#000000;stroke-width:0.461613;stroke-linejoin:round;stroke-dasharray:none;stroke-opacity:1"
       id="path25-6-9"
       sodipodi:type="arc"
       sodipodi:cx="-752.35889"
       sodipodi:cy="-44.826088"
       sodipodi:rx="4.9928341"
       sodipodi:ry="5.3076978"
       sodipodi:start="0"
       sodipodi:end="6.283001"
       sodipodi:arc-type="arc"
       d="m -747.36605,-44.826088 a 4.9928341,5.3076978 0 0 1 -4.99261,5.307698 4.9928341,5.3076978 0 0 1 -4.99306,-5.307209 4.9928341,5.3076978 0 0 1 4.99214,-5.308187 4.9928341,5.3076978 0 0 1 4.99353,5.30672"
       sodipodi:open="true" /><path
       style="fill:#c87137;fill-opacity:1;stroke:#ffffff;stroke-width:1.48083;stroke-linejoin:round;stroke-dasharray:none;stroke-opacity:1"
       d="m -800.91527,78.30586 74.85694,0.490456 z"
       id="path19-9-7-2" /><path
       style="fill:#c87137;fill-opacity:1;stroke:#ffffff;stroke-width:1.29823;stroke-linejoin:round;stroke-dasharray:none;stroke-opacity:1"
       d="m -791.81217,56.182841 57.07187,0.49443 z"
       id="path19-9-7-8-6" /><path
       style="fill:#c87137;fill-opacity:1;stroke:#ffffff;stroke-width:1.30847;stroke-linejoin:round;stroke-dasharray:none;stroke-opacity:1"
       d="m -791.85697,47.206895 58.00808,0.494152 z"
       id="path19-9-7-4-6" /></g></svg>
