<?xml version="1.0" encoding="UTF-8" standalone="no"?>
<!-- Created with Inkscape (http://www.inkscape.org/) -->

<svg
   width="100.1745mm"
   height="171.08623mm"
   viewBox="0 0 100.1745 171.08623"
   version="1.1"
   id="svg1"
   xml:space="preserve"
   inkscape:version="1.4 (e7c3feb100, 2024-10-09)"
   sodipodi:docname="gierkiv2.svg"
   xmlns:inkscape="http://www.inkscape.org/namespaces/inkscape"
   xmlns:sodipodi="http://sodipodi.sourceforge.net/DTD/sodipodi-0.dtd"
   xmlns="http://www.w3.org/2000/svg"
   xmlns:svg="http://www.w3.org/2000/svg"><sodipodi:namedview
     id="namedview1"
     pagecolor="#505050"
     bordercolor="#eeeeee"
     borderopacity="1"
     inkscape:showpageshadow="0"
     inkscape:pageopacity="0"
     inkscape:pagecheckerboard="0"
     inkscape:deskcolor="#505050"
     inkscape:document-units="mm"
     inkscape:zoom="0.25"
     inkscape:cx="-3146"
     inkscape:cy="-472"
     inkscape:window-width="1920"
     inkscape:window-height="1043"
     inkscape:window-x="0"
     inkscape:window-y="0"
     inkscape:window-maximized="1"
     inkscape:current-layer="layer2"><inkscape:page
       x="0"
       y="0"
       width="100.1745"
       height="171.08623"
       id="page2"
       margin="0"
       bleed="0" /></sodipodi:namedview><defs
     id="defs1" /><g
     inkscape:groupmode="layer"
     id="layer2"
     inkscape:label="Warstwa 2"
     transform="translate(811.33366,267.77091)"><path
       style="fill:#1d1400;fill-opacity:1;stroke:#ffffff;stroke-width:1.5;stroke-linejoin:round;stroke-dasharray:none;stroke-opacity:1"
       d="m -743.29772,-267.01133 c -3.87006,0.25116 -7.9491,-0.50106 -11.68005,0.78194 -2.76903,1.28071 -2.522,4.93402 -3.25029,7.43776 -0.31488,1.63556 -0.60061,4.06428 -2.77312,4.05566 -1.57385,0.21875 -4.15951,0.89698 -4.50145,-1.39674 -0.95366,-3.20001 -1.03663,-6.94153 -2.92517,-9.83269 -2.18097,-1.46168 -5.08448,-0.78231 -7.56127,-1.01985 -7.42304,0.0888 -14.89035,-0.18701 -22.28646,0.38083 -2.47814,0.84416 -2.15263,3.74585 -2.20946,5.81475 -0.0654,6.79673 -0.2464,13.6359 -0.13163,20.40676 3.39233,2.83574 5.83213,6.52574 7.71721,10.46935 2.12802,4.16893 4.85846,8.4125 4.61486,13.28763 0.16523,15.25904 -0.56121,30.61504 -3.31412,45.61577 -1.32365,6.5119 -3.74832,12.83129 -4.30799,19.47883 0.23399,1.95966 2.38659,3.14026 4.1902,3.36338 -2.43591,1.31702 -5.35318,3.88821 -4.58769,6.96836 0.15314,1.5536 1.89691,3.40108 0.56579,4.7997 -3.93634,4.10482 -9.97667,6.48279 -12.22576,12.01965 -1.32792,3.6663 1.23391,7.09737 1.74992,10.60458 -1.50704,2.77394 -5.12468,4.98361 -4.2351,8.57475 0.95686,4.03238 5.46846,5.383184 8.86682,6.695754 4.50887,1.69215 9.42017,0.76827 14.11354,1.06098 19.23377,-0.0329 38.4778,0.0983 57.70299,-0.52067 5.597,-0.47429 12.16743,-0.49297 16.27225,-4.943404 2.14565,-2.00141 2.02773,-5.4384 0.12993,-7.56189 -1.31727,-1.52369 -3.18333,-3.32206 -2.31806,-5.55448 0.86564,-3.04745 2.67896,-6.45472 0.81974,-9.51907 -3.19418,-5.0527 -8.62669,-8.07149 -13.19669,-11.71313 1.29349,-2.696 2.73178,-6.402 0.22088,-8.88186 -0.38012,-0.74697 -2.71986,-1.85544 -1.59931,-2.09542 2.24912,-0.35136 2.98473,-3.02924 2.25964,-4.93265 -2.16366,-10.07608 -5.43268,-19.94544 -6.21324,-30.26881 -1.20645,-12.88365 -1.03153,-25.86048 -1.3298,-38.79446 3.67146,-6.07693 6.60083,-12.54946 10.68905,-18.372 1.73187,-3.8647 0.94497,-8.27895 1.18553,-12.38521 -0.18675,-4.03684 0.41813,-8.20981 -0.58726,-12.15903 -1.13379,-2.43014 -4.27599,-1.61825 -6.40311,-1.8364 -4.48691,-0.0451 -8.97424,-0.028 -13.46132,-0.0287 z"
       id="path18-7" /><path
       style="fill:#c87137;fill-opacity:1;stroke:#ffffff;stroke-width:1.5;stroke-linejoin:round;stroke-dasharray:none;stroke-opacity:1"
       d="m -791.89214,-148.33245 62.29047,0.60476 z"
       id="path19-36" /><path
       style="fill:#c87137;fill-opacity:1;stroke:#ffffff;stroke-width:1.52054;stroke-linejoin:round;stroke-dasharray:none;stroke-opacity:1"
       d="m -794.55375,-137.62901 66.20168,0.58472 z"
       id="path19-3-1" /><path
       style="fill:#c87137;fill-opacity:1;stroke:#ffffff;stroke-width:1.61807;stroke-linejoin:round;stroke-dasharray:none;stroke-opacity:1"
       d="m -805.80877,-114.07131 89.54327,0.48954 z"
       id="path19-9-2" /><path
       style="fill:#c87137;fill-opacity:1;stroke:#ffffff;stroke-width:1.56536;stroke-linejoin:round;stroke-dasharray:none;stroke-opacity:1"
       d="m -800.20194,-240.56786 75.83496,0.54098 z"
       id="path19-2-9" /></g></svg>
