<?xml version="1.0" encoding="UTF-8" standalone="no"?>
<!-- Created with Inkscape (http://www.inkscape.org/) -->

<svg
   width="81.548218mm"
   height="180.3136mm"
   viewBox="0 0 81.548218 180.3136"
   version="1.1"
   id="svg1"
   xml:space="preserve"
   xmlns="http://www.w3.org/2000/svg"
   xmlns:svg="http://www.w3.org/2000/svg"><defs
     id="defs1" /><g
     id="layer2"
     transform="translate(534.46138,-55.452653)"><path
       style="fill:#f6f9fc;fill-opacity:1;stroke:#000000;stroke-width:1.39035;stroke-linejoin:round;stroke-dasharray:none;stroke-opacity:1"
       d="m -484.38827,56.176605 c -2.5681,-0.36181 -3.6672,2.68022 -6.0457,2.88365 -1.6623,1.87214 -0.9163,4.81279 -1.3345,7.11 0.1254,1.47983 -0.5642,3.38961 -2.3942,3.01016 -3.3837,0.2799 -7.7833,-1.58265 -10.3379,1.5687 -4.027,4.60143 -7.7454,9.68048 -12.441,13.57487 -2.8134,1.71692 -5.2556,4.06551 -8.1769,5.70522 -2.1172,1.71219 -5.2782,2.39126 -6.7332,4.81009 -0.1659,5.460875 -0.3195,10.994755 0.3129,16.426335 0.3773,1.86379 2.1026,2.75448 3.668,3.26236 2.4956,0.9483 21.6337,2.8406 25.8235,4.99272 2.2209,0.98462 0.8116,3.4581 -0.2435,4.77026 -10.0325,14.32481 -20.8567,28.15321 -29.7869,43.21403 -1.0135,2.19279 1.302,4.25603 2.4025,5.97465 1.9668,2.78198 4.9341,4.57738 7.2275,7.01195 -0.4399,1.31141 -1.687,2.57883 -0.7283,4.02576 0.4748,1.91141 1.4509,4.42918 -0.5855,5.80369 -3.2111,3.58591 -6.8419,7.0645 -8.8738,11.48858 -1.3526,3.14516 0.5534,6.32666 1.2783,9.30136 -1.0322,1.50297 -2.4345,2.91798 -2.2774,4.93287 -0.477,4.26111 0.2959,9.15308 3.3275,12.36017 4.9745,3.55387 11.4357,3.7858 17.2689,4.79091 16.4823,2.39337 33.1972,2.66209 49.6777,-0.15919 2.6071,-0.95398 6.3667,-1.35774 7.1493,-4.55839 1.4803,-4.27198 2.3058,-9.08481 1.1923,-13.52996 -0.2719,-1.38314 -2.6287,-1.93347 -1.3547,-3.49961 1.3148,-3.13234 2.0988,-6.97655 -0.1622,-9.89383 -2.2661,-3.9261 -6.2386,-6.54546 -8.5793,-10.36965 0.02,-3.21187 -1.6051,-6.5154 -0.1782,-9.62845 2.1641,-2.44601 6.0938,-3.69682 6.5015,-7.40846 3.0782,-13.22516 4.0841,-26.84653 4.8825,-40.3723 0.2472,-10.89908 0.7418,-21.88592 -0.57,-32.7329 -1.1445,-5.713465 -4.645,-17.606245 -5.2891,-18.387215 -1.7546,-3.39406 -3.8026,-7.01171 -6.994,-9.21456 -0.7698,-0.74181 -0.7812,-2.27067 -1.6959,-3.06629 -3.7576,-5.128 -8.1171,-9.84929 -12.7112,-14.20428 -1.073,0.003 -2.146,-0.006 -3.219,0.006 z"
       id="path24" /><path
       style="fill:#000000;fill-opacity:1;stroke:#000000;stroke-width:0.461613;stroke-linejoin:round;stroke-dasharray:none;stroke-opacity:1"
       id="path25"
       d="m -494.54748,87.874947 a 4.9928341,5.3076978 0 0 1 -4.9926,5.307697 4.9928341,5.3076978 0 0 1 -4.99307,-5.307208 4.9928341,5.3076978 0 0 1 4.99215,-5.308187 4.9928341,5.3076978 0 0 1 4.99352,5.306719" /><path
       style="fill:#000000;fill-opacity:1;stroke:#000000;stroke-width:0.461613;stroke-linejoin:round;stroke-dasharray:none;stroke-opacity:1"
       id="path25-6"
       d="m -478.02319,88.149475 a 4.9928341,5.3076978 0 0 1 -4.9926,5.307698 4.9928341,5.3076978 0 0 1 -4.99307,-5.307209 4.9928341,5.3076978 0 0 1 4.99215,-5.308187 4.9928341,5.3076978 0 0 1 4.99352,5.30672" /><path
       style="fill:#f6f9fc;fill-opacity:1;stroke:#000000;stroke-width:1.48083;stroke-linejoin:round;stroke-dasharray:none;stroke-opacity:1"
       d="m -531.57247,211.28143 74.8569,0.49045 z"
       id="path19-9-7" /><path
       style="fill:#f6f9fc;fill-opacity:1;stroke:#000000;stroke-width:1.29823;stroke-linejoin:round;stroke-dasharray:none;stroke-opacity:1"
       d="m -522.46937,189.15841 57.0718,0.49443 z"
       id="path19-9-7-8" /><path
       style="fill:#f6f9fc;fill-opacity:1;stroke:#000000;stroke-width:1.30847;stroke-linejoin:round;stroke-dasharray:none;stroke-opacity:1"
       d="m -522.51427,180.18246 58.0081,0.49415 z"
       id="path19-9-7-4" /></g></svg>
