<?xml version="1.0" encoding="UTF-8" standalone="no"?>
<!-- Created with Inkscape (http://www.inkscape.org/) -->

<svg
   width="99.502838mm"
   height="173.27748mm"
   viewBox="0 0 99.502838 173.27748"
   version="1.1"
   id="svg1"
   xml:space="preserve"
   inkscape:version="1.4 (e7c3feb100, 2024-10-09)"
   sodipodi:docname="gierkiv2.svg"
   xmlns:inkscape="http://www.inkscape.org/namespaces/inkscape"
   xmlns:sodipodi="http://sodipodi.sourceforge.net/DTD/sodipodi-0.dtd"
   xmlns="http://www.w3.org/2000/svg"
   xmlns:svg="http://www.w3.org/2000/svg"><sodipodi:namedview
     id="namedview1"
     pagecolor="#505050"
     bordercolor="#eeeeee"
     borderopacity="1"
     inkscape:showpageshadow="0"
     inkscape:pageopacity="0"
     inkscape:pagecheckerboard="0"
     inkscape:deskcolor="#505050"
     inkscape:document-units="mm"
     inkscape:zoom="0.25"
     inkscape:cx="-3146"
     inkscape:cy="-472"
     inkscape:window-width="1920"
     inkscape:window-height="1043"
     inkscape:window-x="0"
     inkscape:window-y="0"
     inkscape:window-maximized="1"
     inkscape:current-layer="layer2"><inkscape:page
       x="0"
       y="1.2137743e-12"
       width="99.502838"
       height="173.2775"
       id="page2"
       margin="0"
       bleed="0" /></sodipodi:namedview><defs
     id="defs1" /><g
     inkscape:groupmode="layer"
     id="layer2"
     inkscape:label="Warstwa 2"
     transform="translate(680.54434,279.37517)"><path
       style="fill:#1d1400;fill-opacity:1;stroke:#ffffff;stroke-width:1.70962;stroke-linejoin:round;stroke-dasharray:none;stroke-opacity:1"
       d="m -633.7386,-278.46047 c -2.75755,-0.37607 -5.65881,1.16972 -4.45262,3.25582 1.40978,2.44915 1.51792,4.53747 -2.09476,6.06151 -7.49177,5.30936 -15.88115,11.00584 -17.2919,18.86792 -2.61925,9.82896 3.17593,19.46947 4.69532,29.04864 -1.31637,1.53009 -4.7289,1.98018 -4.28381,4.2308 -1.38087,1.68021 -6.77228,0.94988 -6.39154,3.3161 3.09049,2.51674 7.82127,4.09436 9.55662,7.4501 1.48277,2.45325 1.87877,5.27543 3.7649,7.60121 1.38276,13.33545 -2.12109,26.76647 -6.35913,39.74794 -1.80017,4.12199 -2.58605,8.90471 -7.16187,11.98583 -4.37736,5.81249 -9.10171,11.49106 -13.99249,17.09609 -2.96865,3.07186 -0.82155,6.60905 -0.30966,9.88208 -1.61292,3.3875 -2.65574,7.51555 -0.0391,10.77408 5.77181,1.89714 12.60285,1.41896 18.84214,1.88769 23.53349,0.26035 47.17496,0.79875 70.63806,-0.78826 3.53486,0.10766 6.11381,-1.82449 6.23382,-4.26268 2.02917,-3.75186 -3.05294,-7.32763 -0.39327,-10.99805 1.65857,-4.73849 -2.68511,-8.79323 -6.18332,-12.4781 -4.1917,-4.43759 -6.93111,-9.54353 -11.76377,-13.6456 -7.81723,-15.17326 -11.15938,-31.48763 -10.98503,-47.60273 0.53292,-3.28926 3.02565,-6.26548 4.11223,-9.48894 2.23048,-3.33979 8.06344,-5.16473 10.06438,-8.20676 -2.85913,-1.04755 -7.5102,-1.07849 -7.65674,-4.0194 -0.45574,-1.50743 -4.01473,-0.71325 -3.30178,-2.60291 0.26163,-8.05465 5.91819,-15.73746 4.4651,-23.94515 0.29885,-4.69084 -0.5926,-9.47665 -4.56837,-13.38535 -2.62015,-2.58333 -4.69688,-6.0739 -8.83541,-7.54584 -1.51418,0.88844 -2.30127,4.25518 -3.4028,7.08411 -2.48719,6.92717 -4.0468,14.24322 -5.8581,21.40343 -0.52756,3.22521 -9.2022,2.9768 -7.78368,-0.67961 0.73428,-4.19345 2.30622,-8.26459 3.28784,-12.46226 2.08914,-7.70164 3.56836,-11.86666 5.7722,-17.81225 1.59829,-2.21234 -3.35066,-2.90165 0.27479,-4.38886 1.80355,-0.79796 -1.43306,-3.81014 -0.33757,-2.86169 -0.75594,-1.09946 -1.34353,-2.58215 -3.63098,-2.36977 -1.53868,-0.096 -3.08483,-0.15417 -4.62975,-0.14914 z"
       id="path21"
       sodipodi:nodetypes="ccccccccccccccccccccccccccccccccccccc" /><path
       style="fill:#1d1400;fill-opacity:1;stroke:#ffffff;stroke-width:1.69234;stroke-linejoin:round;stroke-dasharray:none;stroke-opacity:1"
       d="m -677.16052,-119.93383 h 93.07818 z"
       id="path22" /></g></svg>
