<?xml version="1.0" encoding="UTF-8" standalone="no"?>
<!-- Created with Inkscape (http://www.inkscape.org/) -->

<svg
   width="89.143524mm"
   height="209.85086mm"
   viewBox="0 0 89.143524 209.85086"
   version="1.1"
   id="svg1"
   xml:space="preserve"
   inkscape:version="1.4 (e7c3feb100, 2024-10-09)"
   sodipodi:docname="gierkiv2.svg"
   xmlns:inkscape="http://www.inkscape.org/namespaces/inkscape"
   xmlns:sodipodi="http://sodipodi.sourceforge.net/DTD/sodipodi-0.dtd"
   xmlns="http://www.w3.org/2000/svg"
   xmlns:svg="http://www.w3.org/2000/svg"><sodipodi:namedview
     id="namedview1"
     pagecolor="#505050"
     bordercolor="#eeeeee"
     borderopacity="1"
     inkscape:showpageshadow="0"
     inkscape:pageopacity="0"
     inkscape:pagecheckerboard="0"
     inkscape:deskcolor="#505050"
     inkscape:document-units="mm"
     inkscape:zoom="0.25"
     inkscape:cx="-3146"
     inkscape:cy="-472"
     inkscape:window-width="1920"
     inkscape:window-height="1043"
     inkscape:window-x="0"
     inkscape:window-y="0"
     inkscape:window-maximized="1"
     inkscape:current-layer="layer2"><inkscape:page
       x="0"
       y="3.5333041e-14"
       width="89.143524"
       height="209.85088"
       id="page2"
       margin="0"
       bleed="0" /></sodipodi:namedview><defs
     id="defs1" /><g
     inkscape:groupmode="layer"
     id="layer2"
     inkscape:label="Warstwa 2"
     transform="translate(1050.4413,96.379298)"><path
       style="fill:#1d1400;fill-opacity:1;stroke:#ffffff;stroke-width:1.90467;stroke-linejoin:round;stroke-dasharray:none;stroke-opacity:1"
       d="m -1012.9526,-95.426701 c -3.6891,0.45337 -8.2988,2.729021 -8.3143,7.000754 -0.1996,2.13368 1.3385,3.915314 1.6233,5.891813 -1.9154,1.497728 -4.5694,1.89253 -6.6837,3.132501 -6.3811,3.146737 -10.8629,2.722724 -15.2936,8.945747 -0.224,1.405843 -0.7356,3.540788 1.1489,3.904136 5.2199,2.437247 9.0524,7.347567 10.3329,12.962889 1.0869,4.130485 1.825,8.486637 1.25,12.731799 -0.5741,1.070209 -2.8723,2.020367 -1.4036,3.368155 1.871,1.228186 1.555,4.256628 -0.3969,5.255322 -1.7391,1.2438 -4.6776,2.57196 -3.9378,5.217428 0.7535,1.813313 -0.3576,2.756035 -1.8608,3.54647 -1.9141,1.31605 -3.8387,3.660864 -2.5428,6.0821 0.7947,3.052847 3.9024,4.510224 6.8218,4.627935 2.5315,0.494825 5.3308,-0.08611 7.7217,0.933165 1.3645,2.6566445 0.6888,5.8995439 0.9967,8.7881797 0.083,7.8013036 0.1957,15.6888033 -1.7854,23.2950093 -1.0635,5.328992 -2.2371,10.674227 -4.7329,15.54869 -1.0479,2.064526 -1.68,4.522248 -3.0097,6.329085 -1.7848,1.252663 -4.4332,1.764853 -5.5824,3.741918 -0.589,2.989296 1.9904,5.76832 0.9088,8.803919 -1.8583,5.847431 -7.3695,9.565833 -9.6734,15.214126 -2.1302,4.763299 -2.92,10.483053 -0.4435,15.287599 0.8552,1.454936 0.7677,3.282936 -0.582,4.407545 -1.5245,2.854103 -0.876,6.334462 -1.0977,9.454832 0.2503,2.256954 -0.6541,5.021424 1.5472,6.515204 14.4156,11.79125 88.56578,8.92904 85.57057,-11.121548 -0.0943,-3.404848 0.56638,-7.648496 -2.50269,-10.037521 -1.6135,-1.094467 0.4591,-2.837699 0.6746,-4.315692 1.21027,-5.150675 0.1754,-10.918277 -2.7806,-15.32021 -2.932,-4.385762 -7.5836,-7.554515 -9.7183,-12.459695 -1.0041,-2.618197 0.4279,-5.235766 0.8236,-7.757972 -1.6042,-2.087907 -3.9707,-3.295398 -6.0979,-4.660825 -3.223,-3.348193 -4.4067,-8.07405 -6.2122,-12.234141 -4.5934,-12.299839 -7.3155,-25.4665168 -6.4632,-38.627439 -0.1218,-1.304317 0.7911,-2.149554 2.0545,-2.097801 3.4776,-0.77277 7.9318,0.09307 10.5973,-2.801219 2.4301,-2.384006 1.7532,-6.668833 -1.0828,-8.420059 -1.2706,-0.851033 -2.9413,-1.743366 -2.4631,-3.586006 0.1402,-3.278599 -3.5099,-4.541913 -5.7134,-6.074231 0.025,-1.691494 -0.3527,-3.823743 1.3176,-4.92723 -0.8033,-1.733899 -3.1647,-3.072636 -2.687,-5.396397 -0.3334,-6.063073 0.5734,-12.309145 3.565,-17.678719 1.5359,-2.93064 5.0423,-3.827548 7.063,-6.22843 0.2785,-2.768107 -2.3805,-4.757256 -4.1404,-6.522397 -5.647,-2.730996 -12.6005,-5.563006 -18.63938,-7.561126 -1.1361,-0.96433 0.6599,-2.298717 0.7481,-3.424592 2.0874,-6.016025 -5.8083,-9.766131 -8.9241,-9.733071 z"
       id="path27-9"
       sodipodi:nodetypes="cccccccccccccccccccccccccccccccccccccccccccccccc" /><path
       style="fill:#c87137;fill-opacity:1;stroke:#ffffff;stroke-width:1.3468;stroke-linejoin:round;stroke-dasharray:none;stroke-opacity:1"
       d="m -1048.6018,96.764003 h 86.64009 z"
       id="path28-4"
       sodipodi:nodetypes="ccc" /><path
       style="fill:#c87137;fill-opacity:1;stroke:#ffffff;stroke-width:1.3468;stroke-linejoin:round;stroke-dasharray:none;stroke-opacity:1"
       d="m -1026.0451,-12.323592 h 30.82298 z"
       id="path28-1-9"
       sodipodi:nodetypes="ccc" /><path
       style="fill:#c87137;fill-opacity:1;stroke:#ffffff;stroke-width:1.3468;stroke-linejoin:round;stroke-dasharray:none;stroke-opacity:1"
       d="m -1028.2584,-35.278639 h 36.51678 z"
       id="path28-1-2-09"
       sodipodi:nodetypes="ccc" /><path
       style="fill:#c87137;fill-opacity:1;stroke:#ffffff;stroke-width:1.3468;stroke-linejoin:round;stroke-dasharray:none;stroke-opacity:1"
       d="m -1019.8663,-82.612743 h 14.8549 z"
       id="path28-1-2-0-1"
       sodipodi:nodetypes="ccc" /></g></svg>
